<svg xmlns="http://www.w3.org/2000/svg" width="408" height="612"><path fill="#0cd778" d="m169 481 5 7 1 2 4 9-20 3q-18 1-35 8 1 4 5 6c39 17 107 17 147 1l8-4 1-3q-25-9-54-10 1-8 6-13l1-2 4-5c26 2 52 6 75 20v2l2 1 6 7q1 6-2 11-6 7-14 10l-2 1c-28 13-62 16-92 17h-2c-38 1-93 1-123-24v-2l-2-1q-3-1-4-6 0-5 2-9 7-9 18-13l2-1q24-10 50-12l3-1z"/><path fill="#05dc7c" d="m84 201 3 1v2h2q9 3 13 10v2l2 1 5 4 14 18 3 1 4 4 1 2 3 5h2l4 5 10 11 14 17 1 2 3 3q7 10 7 22l9 82v3l1 14h-4l-1-3-2-4v-2l-9-21-4-9-26-60-2-2-24-56-2-3-11-23-1-2-8-13 1 2 20 49 6 16q3 9 1 17l-1 4-3 17v2l-1 5q0 6-4 10l-9-18-3-7-2-3-9-20c-4-8-2-20-3-29l-1-46v-4z"/><path fill="#06d977" d="M302 172q4 0 6 3l9 12 3 2 2 2c3 7-3 16-6 22l-1 4-13 30-1 2-24 60-1 2-25 61-1 2-6 11h-2v-31q0-31 4-62l1-4c3-17 3-17 8-24l2-2 2-3 3-5 2-2 17-25 2-2 4-6 2-2 1-2q6-9 7-19l1-3 2-10z"/><path fill="#08da79" d="M325 255c0 20-4 35-13 53l-1 3-20 43-1 2-4 9c-4 7-4 7-6 15a22 22 0 0 1-14 15l-3 1-15 7-2 1-9 2q2-7 6-14 10-17 17-34l21-44 1-4 1-2 6-12 1-3 3-7q4-8 11-15l2-2 2-1 9-9 3-2q2-2 5-2"/><path fill="#04dd7d" d="m218 111-4 8-3 2-2 2-11 11-5 6-11 10-3 3-2 2-4 2-2 4h-2l-2 4h-2v2l-4 3-3 2-3 2-36 25-11 6-10-7v-2l-2-1-3-3q0-4 3-6l2-3 2-3 15-21c8-12 14-17 28-20l17-6 8-3 41-16z"/><path fill="#1dc075" d="M231 367h3l-6 34-20 103q-3 0-5-4l-3-1-3-5-6-11-7-13-6-10-7-11-5-9-1-4q4-7 10-12l2-2 2-2 1-2 5-1 4 14v2l6 27 1 2 8 30-1-4-6-41-2-14-2-10c-2-11-2-11 1-16l3-3 3-3 4-2 1-2 4-6 2-2 2-2 4-4 2-2 7-8 2-2z"/><path fill="#09d877" d="M156 483h8l6 2 1 4 2 3 1 5-14 1 1-4h-3v3l-9 2v2h-2l-8 1h-8l-5 4-4 1 1 9 3 1v2h2q6 0 11 3c15 7 36 6 53 7v2h4l6 1h22v12l-8 1h-40v-2h-8v-3h-2v-2h-2v-2h-3v2h-9l-2 1-7 1h-3l-8-1v-2h-4l-14-4v-2h-4l-5-1h-2q-7 1-13-5v-2l-2-1q-3-1-4-6 0-6 2-10l6-2 1-2h2l1-3h2l6-2h4l2 2 1-1q5-8 15-9l25-3v-1h5z"/><path fill="#07da7b" d="M123 302q3 1 5 4l19 41 13 27 12 25 4 9 1 2 1 5q-4 3-9 5l-1 3-5 4c-7-2-11-14-14-20l-6-11-2-2-13-24-1-2-3-5-4-6q-2-5-2-10l1-4v-6l2-10v-4l1-12v-3z"/><path fill="#05dc7b" d="M227 111q5 1 7 7l2 2 2 3 2 3 12 18 10 17-1 6v3l-6 30-2 7-4-1-3-5-3-2v-2l-2-1-7-4q-9-5-19-8l-3-1q1-13 4-25l3-12 1-2z"/><path fill="#0cd778" d="M242 480c26 2 52 6 75 20v2l2 1 6 7q1 6-2 11-6 7-14 10l-2 1c-11 5-25 11-37 10l3-1 1-3 6 1v-7l2 1v2l6-1v-6h2v-4l-3 1q-9 2-18 1l-1-1h-11v-1l2-1h4l3-1 7-4 5-2 2-1 2-1 2-1 1-3q-25-9-54-10 1-8 6-13l1-2z"/><path fill="#06da7a" d="M235 295c4 11 1 26 0 37l-1 15v3l-1 6-2 1-12-6-7-4-9-3q-5 2-9 5-3 3-7 3-2-5-2-10v-3l-1-40h6l16 3 3-1q11 0 21-5z"/><path fill="#06dc7b" d="M274 136q6 2 8 8l8 9 1 2 4 5q4 4 4 11l-1 5-1 3-3 16q-2 12-10 23l-8 11-1 2-2 2-1 1-6 9h-3l-2-11 1-24 1-3 6-43 1-4z"/><path fill="#04dc7c" d="M87 215h3v4h2l1 2v4l1 3 4 8 1 6 2 1-1 7h2l5 7 3 6q2 7 3 13h2q4 3 5 9l-3 21-2 11v2l-1 5q0 6-4 10l-9-18-12-25q-2-7-2-16v-60"/><path fill="#07db7b" d="M302 172q4 0 6 3l9 12 3 2 2 2c3 7-3 16-6 22l-1 4-13 30-1 2-4 12-1 2-24 57h-1v-5h2v-4l1-7h2l3-12h3v-9h2q2-4 3-10h2v-2l2-6h2v-4h2v-4q-1-9 4-16h-2l-6-2-1 3h-2v-2l-3-1v-5l3-1-2-3-2 4h-2l-1 6h-3v2q-2 4-5 6l6 1 1 5-4 2-8-2-4 8h-4l-1 3-2 1-2 6-3-1 11-18 2-2 16-24 2-2 4-6 2-2 1-2q6-9 7-19l1-3 2-10z"/><path fill="#05dc7b" d="m179 164-4 10-1 4-2 3-12 22-2 4-3 6q-8 15-9 32-6 1-7-3l-2-1-2-2-2-2-15-15-2-2-1-2-2-2-1-4 3-3 2-1 4-1v-2l4-3 8-6 4-1v-2l4-3 11-8 5-2v-2l5-4 12-9z"/><path fill="#05dd7d" d="m185 130-1 4h-2v2h-2v2h5v5h-3l1 4h-3l-1 2-2 4h-2v2h-3l-1 2-3 4h-3v2h-2v2l-1 4h-6v2h-3v2h-4v3l-3 1q-3 1-5 4l-2 2-7-1-1 3h-3l-1 3-4 2v-4l-1 3-1 4-4 2v2l-4 2v2h-4v2h-2l-4-5 1-3-5-1q0-5 3-10l6-2-5 10h3v-2h2v-4l2-6 5-3-4-3 3-2-1-2 1-4 8 2v-2h2v-5h2v9h2l-2-12 5-4h8l2 4-1 2h4v9l3 2 5-2-2-6q4-2 10-1l-1-15h4l-2-7q-4 1-7 5l-5-2v-3q6-4 12-5l2-1h9l1-3q5-3 12-1"/><path fill="#06dc7a" d="m286 229 2 4-2 1v5l2 1v2l1-2 6-1 4 1-1 5-2 10-1 3v3h-2v4h-2l-2 8h-2v3l-2 8-3-1v9h-3v3q0 5-3 9h-2l-1 6h-2v-2h-2l-3 1h-3l-4-1-2-4h-3v-7l-3-1 1-8 4-2v3l1 7h3v-2h2v-6h-2v-11c0-6 0-6 2-10l1-1h-2v-4l3-1 2-6 3-2 2 1 7 1 1-6h-7l4-4 2-5h3l1-6h2v-2z"/><path fill="#0dd678" d="m263 405-14 28-2 3-13 24-9 17-9 16-3 3h-2l12-57 1-3 2-9c1-9 1-9 3-13q5-3 12-4l5-2 7-2 3-1z"/><path fill="#08db7d" d="m223 112 2 1-4 14-9 29-1 3-4 14-1 3c-2 6-2 6-5 8l-7 2h-5l-2 1-8 2q-1-5 1-10l3-8 1-3 2-6q2-9 9-16l5-6 2-3h2l1-2 4-6 1-2 2-2 2-4 2-1 3-5z"/><path fill="#25d68b" d="m84 201 3 1v2h2q9 3 13 10v2l2 1 5 4 14 18 3 1 4 4 1 2 3 5h2l4 5 10 11 14 17 1 2 3 3q7 8 6 19l-2 1v-2l-1-3v-3l-4-6h-2l-2-7h-3v-5h-2v-2h-5l-1-3-2-4-3-1v-6h-2v-2l-5-1v-6h-4v-3l-7-1 1-4-7-1v-3h3l-1-1-2-4h-3l-1 4-5-1 1 9h2l2 6 1 4v6l-15-31c-5-15-5-15-14-26l1 2 21 52 4 12-2 2v-4h-2l-3-8-3-8q-2-3-2-7l-3-1v-2h-2l1-7-3-1-2-7-2-3q-2-6-2-13h-2v-4h-3l1 71c-6-6-3-21-4-29l-1-46v-4z"/><path fill="#07d877" d="M325 255c0 20-4 35-13 53l-1 3-12 25-18 39-1 3-4 7v2l-5 5h-5 2v-6l2-2h3l2-9h2v-2h2v-5h2v-2h-3v-2l-4 3 4-15 3 1-1 3 1 7h4v-2q0-3 2-5l1-7q-1-2 3-4l1-6h2v-3h-2v-2l2-1 1-5h-3l4-6 1 5h4v-5l3-2 1-6h2v-5h2l-1-11h-2l1-5-2-1-1 4h-2l-3-5-3 2-1-2-3 3q-1-5 2-11 8-12 18-19l4-4 2-2 2-2z"/><path fill="#08d978" d="M280 324h2l2 7-4 4h4l6-9h2v2h3v5l-3 1v2h2v3h-2v3l-1 4-3 6q1 5-2 6l-1 5h-4q-3-5-1-10l-2-1-1 5-1 3v4h2v2h3v2h-2v5h-2v2h-2l-1 10-3 1v2h-2v2l-4 3-3 1-4 1h-6 2v-8l-5 1 1-6 3-1 3-7 3-3h3l-1-2v-7l2-2 1-2h4v-3h-2q1-8 7-13l4-2-1-8h2v-6h2z"/><path fill="#06da79" d="M162 298h2q3 3 3 7h3v15h2l3 10q4 20 3 41v3l-1 4h-7l-1-5-1-3-1-5h-2v-2h-2v-3l-1-3-2-1-2-5h-1v-12h-2l-1-7-3-1-1-8 4-1v-2h6v-18h2z"/><path fill="#0ad778" d="M148 351q4 5 6 11l1 1 13 32v4h2q4 9 2 17-4 5-10 6l-3-1-1-9-5-2v-3h-2l-2-11h-2l1-4 2 1v-7l-6 1v-3h-2v-2l3 1-1-3-5 2q-2-2-2-5v-3l-5-1q0-4 2-9h9v-2h3v4h-2v2h4v-4h2v-2l-1-2-1-3z"/><path fill="#07d978" d="M235 295c4 11 1 26 0 37l-1 15v3l-1 6-2 1-12-6-7-4-9-3q-5 2-9 5-3 3-7 3-2-5-2-10v-3l-1-40h6l16 3 3-1q11 0 21-5zm-47 9v45h4v-2l4-1-1-2 13-1h7v2q3 3 7 3h2q3-3 2-7v-3l-1-6h-2l-2 6h3v4l-3-1-1-3h-4v-2l4-1v-3h-6v-12h6v-2h3l1-15h-29z"/><path fill="#08d877" d="M212 394q3 7 2 14v7h-3v2l-1 17h2v4h2l1-3 2 1v19l-4 1v15l-3 1v8l-1 2-4 2-1-15h-2q-2-5-2-11v-3l-1-24h-2v-5l-1-2v-6l-1-4 2-5 3-1 2-5q2-3 5-4l1-2 3-1z"/><path fill="#08d877" d="M231 367h3l-3 20-1 3-7 33v2l-3 14v2l-1 6-3 7v-18l-4 2v-4h-2v-10l1-9h3v-7l-1-2-1-10-4 1-2 4-3-1h2v-2l4-7 2-2 2-2 13-14 2-2z"/><path fill="#06dd7e" d="M227 111q5 2 8 7l2 3 1 4-3 1-5-4 1 2q0 5-4 9h-2v4l-2 10q-2 6-2 12l-1 9h-2v3l-3 10 13-1v-2h-2v-2h-2v4h-2v-9l2-6 1-5h14l2 10-1 3-2 6-6 1v2h-4v3l5 2v2h2v2h2l7 2-2-11h4l2 12h-2v3l3 1v5h3v-3h2l-1 7-4-1-3-5-3-2v-2l-2-1-7-4q-9-5-19-8l-3-1q1-13 4-25l3-12 1-2z"/><path fill="#3cce8d" d="m169 481 5 7 1 2 4 9-20 3q-18 1-35 8 1 4 5 6c38 16 93 14 133 5h8l-11 4c-5 0-5 0-9 2q-25 3-51 2h-3l-33-1h-3l-12-3h-3l-5-1-8-4h-4l-2-1v-2l-4-1-1-4v-3l1-4 5-1 2-2 20-1v-2l9-2v-3h3l-1 4h2l7-1h5l-1-3-2-5-2-1v-3l-8-2h-5v2q-10 4-21 4c-13 1-13 1-23 8l-2 3-2-1v-2l-3 2-9 1-1 2h-2l-1 3-5 1c9-13 30-18 45-21l24-4 3-1z"/><path fill="#0bd577" d="M203 353q7 2 13 7l4 2 2 2-4 7-2 2-1 2-4 4-2 1-3 5h-2l-2 4h-2l-1 2-5 6h-2l-2-18v-3l-1-4v-8l4-4 4-4q3-4 6-3"/><path fill="#0ed279" d="m185 417 9 37 1 3v3l1 7q-3 0-5-4l-1-11-1 3-3 1-1 2h-4v2h2l2 6h3v7l-2 1-2-3-7-13-1-2-9-15-2-5q4-7 10-12l2-2 2-2 1-2z"/><path fill="#03dc7b" d="m120 240 3 1v2l3 1v2h-3v3l7 1v4h3l3 1v3h4v2l3 4 2 1v2h2l1 6h3c2 7 2 7 1 9h4l-1 4h-2q-4-4-3-7-3 1-5 4v3l1-1 4-2-1 5-4 2-1 3-4 4h-2l-1-7-3-1v-11l-2-2q-4-3-3-6h2v-10h-3v2l-9-1-2-8h-2l-1-9 5 1z"/><path fill="#0cd77d" d="m218 111-4 8-3 2-2 2-11 11-5 6-11 10-3 3-2 2-4 2-2 4h-2l-2 4h-2v2h-2v-4h2v-2l5-3 2-3h3v-2h2l1-5 5-1-1-4h3v-5h-5v-2h2v-2l2-1 1-3q-7 0-12 2l-1 2h-3q-5 0-10 3l-7 2-3 2h-3v2h-11v2h-3v2l-6 2-2-1q4-5 10-6l28-10 2-1 12-4 8-3 25-10z"/><path fill="#10d579" d="M251 271v11l-2 25v5l-1 8-2 1-1 7v24h5l1 2 3 3 1-5h2v-4h2v-10h-3l-1-3h3l1-5-3 1v-7l4 2 1 5 1-1 4-2 1-5h2v-3h2q0 7-4 14l-14 33-1 3-5 10-1 2-4 3v-31q-1-32 5-62v-4z"/><path fill="#04dd7c" d="M159 181h5l-1 4h-2l1 5-3 1 2 1v6h-2v2l-3 8h-2v2l-3 3-2 1v3q0 6-3 11h-2v4h-2v-6h-2v-3h-2v-13l4-1q-1-3-6-5l-1 3-4 1 3-9 6-2 1-5h7l1-2h5l-1-2 1-5h5z"/><path fill="#0dd77a" d="M290 293q2 5-1 10l-1 3-2 3v11l-3-1 1 3v7l-2-1v-4h-2l-1 4-1 2 1 7-1 3-4 2q-6 4-8 13h2v3h-4v4h-3l1 3v7h-5l-1 2v2l-1 3-3 3h-2v5h4v8l3-1 9-1q-6 6-14 8l-3 2-3 1-3 1-6 1q2-7 6-14 10-17 17-34z"/><path fill="#39d191" d="m84 201 3 1v2h2q9 3 13 10v2l4 2-3 4 2 9 2 1 1 5v4h3q3 4 2 7l-1 2-7-12-1-3c-5-13-5-13-13-23l1 2 21 52 4 12-2 2v-4h-2l-3-8-3-8q-2-3-2-7l-3-1v-2h-2l1-7-3-1-2-7-2-3q-2-6-2-13h-2v-4h-3l1 71c-6-6-3-21-4-29l-1-46v-4z"/><path fill="#11d57f" d="M302 172q4 0 6 3l9 12c6 6 6 6 6 10l-3 7-2 4-1 3v-11l1-4v-3h-2v-3h-2v-3l-6 1 1-5h-2l-1-4h-2v6l-1 3-2 6h-2v4q0 9-5 16l-1 2-5 7-4 11h-2l-1 6h-3v2q-2 4-5 6l6 1 1 5-4 2-8-2-4 8h-4l-1 3-2 1-2 6-3-1 11-18 2-2 16-24 2-2 4-6 2-2 1-2q6-9 7-19l1-3 2-10z"/><path fill="#07d876" d="M243 483h9v4l4 1v4h5l-2-5 5 2v-2h7l1 1 12 1v2h2l1 2h10l-1 4-13 1v2h5l-1 2-1 3 1 2q-4 0-7-4v-3l-2 1q-8 1-14-2l-1-2-6 1-1-2 3-1-4-1v2l-3-1h-4l-2 2h-7l-4-2 4-9h4z"/><path fill="#03de7d" d="M87 215h3v4h2l1 2v4l1 3 4 8 1 6 2 1-1 7h2q5 4 5 10v3h1v5h2l-1 5h-3v-2h-4v-2h-2l-1-3-3 15-2-1v-8h-2v-8l-1-2q2-4-1-7v-7l-3-26v-7"/><path fill="#04de7c" d="M209 132h6l1 3h-3l1 3-1 5h-2v3h-2l1 3-1 9-2 11h-2l-2 13-21 2 1-4 1 2q5 1 8-2l-1-5-2-1 2-8h2l1-6h2v-6h2l1-4 5-1 1 3v-2l-1-2-1-3v-5h2v-3l2-1z"/><path fill="#0fd57a" d="M98 529h7l7 1 2 1h2-2v2h4l8 3 6 1v2h10l8-1-1-2 12 2v-2h3v2h2v2h2v3h8v3h27c18 1 18 1 36-2h17v-2h14v1q-27 5-55 6h-3c-33 1-84 2-112-18z"/><path fill="#09d776" d="M248 411h6l1 3h-2v6h-2l-1 4h-3l-1 8-3 1-1 4-1 4-3 2v-7l-3 1q-3 7-1 14l-4-3-1-8-2 1v-6h2l1-5-1-9 1-3v-3l3-1 6-2z"/><path fill="#10d078" d="M174 308h1l8 76 1 3v8l1 3v12h-4l-1-3-8-20-1-2-4-10-5-10-2-4-1-3-1-3v-5l2 6 3 1v6h2v2h2l2 5v3l1 5 7-1-1-4 2-1-1-1v-22l-1-2v-5l-1-6z"/><path fill="#08da7c" d="M305 222q4 8 1 15l-4 10-11 27-19 46h-1v-5h2v-4l1-7h2l3-12h3v-9h2q2-4 3-10h2v-2l2-6h2v-4h2v-4q-1-9 4-16h-2l-6-2-1 3h-2v-2l-3-1v-5l3-1-1-4 9 1v-2h4v-2l3-3z"/><path fill="#08da7b" d="M274 136q6 2 8 8l8 9 1 2 4 5q4 4 4 11l-1 5-1 3-10 35-1-6h2v-4l1-3 2-6q4-14 4-29l-7-4 1 6h-2v-2h-3v-4l-4-1v-3l-7-1v2l-1 3-2 1 2-21z"/><path fill="#05db78" d="M143 362h3v4h-2v2h4v-4h2v2h2v2h2c4 8 4 8 2 13h-3v-6l-5-2 1 2 1 5h2v6l2 1q4 3 4 7 1 5-2 8h-2v3l-3 1-2-10h-2l1-4 2 1v-7l-6 1v-3h-2v-2l3 1-1-3-5 2q-2-2-2-5v-3l-5-1q0-4 2-9h9z"/><path fill="#22ce84" d="M235 295c4 11 1 26 0 37l-1 15v3l-1 6-2 1-5-2-3-2-2-1v-1h10v-16l1-4v-29l-8-1v2a160 160 0 0 1-36 1l1 4v24l-1 17h4v-2l4 1c-6 4-6 4-9 4q-2-5-2-10v-3l-1-40h6l16 3 3-1q11 0 21-5z"/><path fill="#06db7a" d="m179 164-4 10-1 4-2 3-12 22-2 4-3 6q-8 15-9 32h-4l-4-5h2l4-1v-5l4-14v-3q1-4 5-6l1-3h2v-3l3-7h2v-6l-3-1 4-1v-2l-2-1 1-2h2l-1-3-3-1v2h-5v7l-13 2q6-7 14-12h2v-2l5-4 12-9z"/><path fill="#02dc7a" d="m90 281 4 5 2-1 4 1v2h4v4l3-3 2 1h5l-2 6 3-1v6l-3 1 1 3v10h-3l-1 6-4-4v-2h-2l-2-6h-3l-1-12h-3v-4l-4-9z"/><path fill="#04db79" d="M125 314q4 0 6 3l2 9 2 1v2h-2l1 2q3 4 3 7h3v3l3 1 3 16-3-3-7-1-1-3 2-2h1l-8-1v3h-3l-3 1-1 2-1-4 4-5-3 1v-9h2l-1-2v-16zm6 19-1 3v8l2-1v-8z"/><path fill="#09d879" d="M123 358h2l1 6 3 1v4h2v4l6 1 2 7 2-2v2h2l1-2 2 2-1 3-3-2v2h2v3l6-1v7h-2l-1 3h2l2 11h2v3l6 2v9q5 1 9-2l2-3h2q1-6-2-13v-4h-2v-7l6 12 1 2 1 2 1 2 1 5q-4 3-9 5l-1 3-5 4c-7-2-11-14-14-20l-6-11-2-2-7-13-2-4-4-7-1-2-5-8z"/><path fill="#14d580" d="M269 163h1v33h-3l2 9 2-1-1 11-3-1v3h-2l1 15h5v-5l3-1 1-2h2l1-6h3v-3l4 1-6 9-2 3-5 7-2 2-1 3-2 2-1 1h-3l-2-11 1-24 1-3z"/><path fill="#1bc779" d="m169 481 5 7 1 2 4 9-23 1h-7q4-4 9-3v-3h3l-1 4h2l7-1h5l-1-3-2-5-2-1v-3l-8-2h-5v2q-10 4-21 4c-13 1-13 1-23 8l-2 3-2-1v-2l-3 2-9 1-1 2h-2l-1 3-5 1c9-13 30-18 45-21l24-4 3-1z"/><path fill="#0bd779" d="M309 306h3l-5 13-8 17-18 39-1 3-4 7v2l-5 5h-5 2v-6l2-2h3l2-9h2v-2h2v-5h2v-2h-3v-2l-4 3 4-15 3 1-1 3 1 7h4v-2q0-3 2-5l1-7q-1-2 3-4l1-6h2v-3h-2v-2l2-1 1-5h-3l4-6 1 5h4v-5l3-2 1-6h2v-5h2z"/><path fill="#09d777" d="m180 423 1 2 3 1-1 2v2l1 1q4 4 3 9l1 11h-3l-1 3h-2l1 3-5-1q-3-5-3-11h-3l-3-4-1-3v-5l4-2 2-3h2v-2h4z"/><path fill="#13d480" d="M111 165v6l-1 2-4 8-4 1v6h-2l-1 5 2 1 4 3v2l2 4h2v-2h4l-1-3 5-1 1-5 3 1v-3l1-4 2-1v4l2-2q2-2 5-2l1-4 7 2 1-3 2-2v-1l7-1v-3h4v-2h3v-2l4 1-10 8-4 2-1 1-26 18-11 6-10-7v-2l-2-1-3-3q0-4 3-6l2-3 2-3z"/><path fill="#41ca92" d="M231 367h3l-3 20-1 3-7 33v2l-3 14v2l-1 6-3 7v-21l3-1v-2l2-10 2-14h2v-12h2v-5l-1-3q1-3-2-5l-1 2-3 1-4 4-2 2-1 2-3-1 12-13 2-2 2-3z"/><path fill="#0cda7f" d="M227 111q5 2 8 7l2 3 1 4-3 1-5-4 1 2q0 5-4 9h-2v4l-2 10q-2 6-2 12l-1 9h-2v3l-2 5v8l-4-1 4-25 3-12 1-2z"/><path fill="#0cd679" d="m96 499 2 1v2l-3 2-3 3v3h7v2l5-1-5-2 3-3 5 1 3 3 1 4 1 8h4v3l11 2-2 1v2q-6 1-10-2l-7-1-1-6-1-5h-4v-2h-9v-2h-4v-2h-2v4l1 2v2l2 1v-3h2v3l4-1-1 5 2 1 1 5-8-4v-2l-2-1q-3-1-4-6 0-6 2-10l6-2 1-2h2z"/><path fill="#19d683" d="M123 302q3 1 5 4l13 28 1 2 6 15-4-1-2-8-2-1v-3h-3l-4-9h2v-2l-3-1v-3l-3-8h-3l-3 12v30l-2 2q-4-5-3-12l1-4v-6l2-10v-4l1-12v-3zm8 31 2 4-2 7h-1v-8z"/><path fill="#06dc7e" d="M128 262v-2h3v10h-2v3l2 1 5 5-1 2c0 6 0 6 2 11l1 8v8l-4-7-1-3-1-2-8-17q-4-9-5-18 5-2 9 1"/><path fill="#41cf92" d="m321 218 3 1 1 7 1 3v6q1 5-2 9l-6 6-2 2-3 4-2 3h-4z"/><path fill="#05d975" d="m203 356 7 4v2h-3v2l2-1h2l2 4v3l-1 3-2 5h-3l-1 3-3 1v4h-6v3h-2l-1-8v-5l3-1q4-2 4-5h-7l2-4c6 0 6 0 9 3h3l1-3h-5v-2l-5 1v-3h-2v-3h2l3-1z"/><path fill="#07d877" d="m323 260-2 22h-2l-2 9h-2l-1 3h-2l-3 2v-5l-1-3-1-5 2-6 1-6h5l-3-1c2-4 6-10 11-10"/><path fill="#0dd57a" d="m238 486 1 2-3 7 10 1 3-3v2l6 1v-2h5v3h3l1-2v2l1 2 9 1h6v3l2 1 4 3v7l-2-1 1-3q-25-9-54-10 0-6 4-10l2-2z"/><path fill="#06d976" d="m165 396 2 1-1 5h3q4 5 4 12-1 4-5 6c-5 2-5 2-9 1l-1-9-5-2 1-4h4v-6h3l1-3z"/><path fill="#33cf8b" d="M242 480q32 3 62 13v1h-19l1-3h-2v-2h-9l-4-1-7-1v2h-3v3h-5v-4l-5-1 1-4h-9v3h-4z"/><path fill="#38d08e" d="m223 112 2 1-4 14-17 55h-1q0-6 2-13h2v-4l2-14v-5h2v-3h2v-8h3l3-12h-2v2l-4 1v2h-2l6-10 2-3z"/><path fill="#08db7d" d="M132 148h-2l3 5-5 2-3 1-4 1-1 5 2 1v5l-8-2-1 5 2 1-3 2 4 4-6 2-2 10h-2v2h-3l5-10-7 1 1-2h4v-2l4-8 2-5 7-12q4-8 13-6"/><path fill="#36d18e" d="m130 246 4 3v2h2l4 5 10 11 14 17 1 2 3 3q7 8 6 19l-2 1v-2l-1-3v-3l-4-6h-2l-2-7h-3v-5h-2v-2h-5l-1-3-2-4-3-1v-6h-2v-2l-5-1v-6h-4v-3h-2l-3-4z"/><path fill="#68d1a5" d="M256 542h14v1q-27 5-55 6h-3l-41-1-3-1h-9l-12-2v-1l29 1 32 1h3c14 1 14 1 28-2h17z"/><path fill="#0bd67b" d="M118 292v11l-1 4-1 3-1 7v2l-1 5q0 6-4 10-5-7-8-16l-1-3-3-6h3l2 6 3-1 2 6 2-5h3v-5l-1-2v-7h3z"/><path fill="#1ecb81" d="m185 298 2 1 25 4v1h-24l1 10-1 23v12h4v-2l4 1c-6 4-6 4-9 4q-2-5-2-10v-15l-1-28z"/><path fill="#0bda7d" d="M296 208h1l-2 9h-2l2 3h4l-1 5h2v3h-4v2h-12q2-6 6-10l3-6zm17 5 2 1-7 19h-1l-1-9-6 1 2-5 5-1 2 3 2-7h2z"/><path fill="#0ada7b" d="M281 232h3v2h-2l-1 6h-3v2q-2 4-5 6l6 1 1 5-4 2-8-2-4 8h-4l-1 3-2 1-2 6-3-1 10-16 6-9h5v-2l2-1 1-3 1-4 3-1z"/><path fill="#3ad08d" d="m204 397 1 3h-2v2q-1 5-6 8l-1 5 1 1v15h2l3 47h-1v-2l-1-9-1-3-4-27-2-14c-2-11-2-11 1-16l3-3 3-3 4-2z"/><path fill="#4bd298" d="m306 233 1 4-1 2-1 2-1 3-2 3-30 73h-1v-5h2v-4l1-7h2l3-12h3v-9h2q2-4 3-10h2v-2l2-6h2v-4h2v-5h2l1-9 4-7 2-5z"/><path fill="#3dd092" d="m243 121 12 5 8 5v16q-6-2-9-8l-9-13z"/><path fill="#36cd8c" d="m168 392 6 12 1 2 1 2 1 2 1 5q-4 3-9 5l-1 3-5 4c-7-2-10-13-13-19l-3-5 4 1v3h2v3l6 2v9q5 1 9-2l2-3h2q1-6-2-13v-4h-2z"/><path fill="#2fd58b" d="m285 149 10 11 2 3c4 8 0 18-2 26l-1 6q-2 10-7 19l-1-6h2v-4l1-3 2-6q4-14 4-29l-7-4 1 6h-2v-2h-3l2-7q2-4-1-10"/><path fill="#05de7c" d="M221 149h3l-1 7h10l-1 4h-7v3l-2 5-1 6v6h2v-4h2v2h2v2l-8 1h-5v-5l1-1 1-4v-4l3 1v-2l-2-1h2z"/><path fill="#09d979" d="m224 323 3 1v15l4 1v11q-12 1-22-5l-8-2-5 3-1-3q9-3 20-1v2l3 1 6 2 2-10v-7h-2z"/><path fill="#3fcd91" d="M325 255c0 19-4 33-12 51h-1v-6h2l1-9h2v-2l2-7h2v-9l1-2v-5l1-6q-7 4-11 10l4 1-14 2 14-13 3-2 1-2z"/><path fill="#0dd076" d="m263 405-19 37h-1v-7l4-2v-9l3-1 1-3h2v-6h2l-1-2h-16q5-4 9-5l9-2z"/><path fill="#44d297" d="M88 205q5-1 9 3c5 5 5 5 5 8l4 2-3 4 2 9 2 1 1 5v4h3q3 4 2 7l-1 2-5-9-2-3-1-3-11-22-4-1v-2l4-1v-2l-3 1-2-1z"/><path fill="#12d882" d="m156 169 4 1-11 8-3 2-24 17-5 1 1-6 3 1v-3l1-4 2-1v4l2-2q2-2 5-2l1-4 7 2 1-3 2-2v-1l7-1v-3h4v-2h3z"/><path fill="#11d47e" d="M251 271v11l-2 25v5l-1 8-2 1-1 7-1 10q-2-1-2-6l4-37v-2l2-7v-2z"/><path fill="#0ad675" d="m308 498 6 3 2 6 3-1q3 2 3 6t-3 8l-1 1v-3l-4 1v-2l-2-1h3v-2l-3-1 1-4-7-1v-2h-2v-7z"/><path fill="#52cd9b" d="M169 180h2l-5 13-2 2-10 19q-6 11-7 24v2l-1 5h-4l-4-5h2l4-1v-5l4-14v-3q1-4 5-6l1-3h2v-3l3-7h2v-6l-3-1 2-1 3 1v-2h2v-4h2z"/><path fill="#09d776" d="M187 452h3v2q1 8 6 13l-1 6h2l1 11-2-4q-4-4-9-6l1-8h-3l-2-6h-2v-2h4l1-3h3v-2z"/><path fill="#07da80" d="M87 230q3 5 3 10v8l-1 13v10q-1 9 4 15 2 6 1 11h3l1 10-7-12-2-4q-2-10-2-21z"/><path fill="#28cf82" d="m196 468 4 13 1 2 1 9h-2l-1 2h2v2h3l1 4h4l-1 4q-3 0-5-4l-3-1-3-5-8-14-2-6c8 2 8 2 10 5v-6h-2z"/><path fill="#51d4a0" d="m240 128 7 9 5 9 2 2 5 7q3 4 3 9l-3 18-1 3-3 15-1-4-3 1v-2h2v-3l2-8q4-13 3-27l-3-1-2-7h-6l-2-11h-2v-5l-3-1z"/><path fill="#56d49c" d="M184 126h-2l-1 3-4 2-4 1-1 2h-3q-5 0-10 3l-7 2-3 2h-3v2h-11v2h-3v2l-6 2-2-1q4-5 10-6l33-12c14-5 14-5 17-4"/><path fill="#12d27c" d="M98 529h7l7 1 2 1h2-2v2h4l8 3h3l4 2q4 4 10 3h2l5 1q-5 3-12 1h-3l-22-6-3-1q-7-2-12-7"/><path fill="#09da7a" d="m310 272-3 4h-4v2q2 8-1 16l-3-3-3 2-1-2-3 3v-6l2-4 1-2c3-6 8-12 15-10"/><path fill="#18d583" d="m222 132 2 1-1 11-1 5v6l-2 13h-2v3l-2 5v8l-4-1 5-28z"/><path fill="#09d97c" d="M242 182h4l2 12h-2v3l3 1v5h3v-3h2l-1 7-4-1-3-5-3-2v-2l-2-1-7-4q-8-5-17-7v-1h6l4 1 6 2v2h2v2h2l7 2z"/><path fill="#3ad091" d="m299 187 2 4-1 2v4q-1 10-6 17l-1 2-5 7q-2 3-3 7l-1 2-3 1q-5 4-6 11h-2v2l-4-1 12-18 2-2 6-8 1-2q6-9 7-20l1-2z"/><path fill="#0dd57a" d="M231 367h3l-1 9h-2v6h-2l-1 9h-1l-1-6-2-4-1 2-3 1-4 4-2 2-1 2-3-1 12-13 2-2 2-3z"/><path fill="#12d179" d="m313 527 2 1q-15 8-31 12l-2 1-12 1 3-1 1-3 6 1v-7l2 1v2l6-1v-3l4 1 10-2h3q4-2 8-3"/><path fill="#10d87f" d="M141 192v5l-7 2-1 2-5 7-1-2-3 1-2 6-6-1v6l-4-3v-3l3-3 2-1 4-1v-2l4-3 8-6 4-1v-2z"/><path fill="#05db7b" d="m103 220 2 3 3 1 1 3 3 1 2 4 1 2 1 2h2l1 3-3 3-8-1-1-9-3-1q-3-5-1-11"/><path fill="#12d37d" d="M218 111q-1 5-6 9l-2 2-2 2-2-1h-11l-4 2h-7l12-6 18-7z"/><path fill="#33cd86" d="M217 468h1v11l2-3 3 1v-3h2v-3h2l-9 20-2 2-3 3h-2z"/><path fill="#13d480" d="M138 308q3 1 5 4l2 7 4 1-2 6h2l1 2 1 3 3 1 1 7h2v11l-6-10-1-2-1-3-8-17-1-2z"/><path fill="#53d29b" d="M267 174h1c-1 20-1 20-3 29q-3 18 1 34l1-1 3 1-4 6h-3l-2-11 2-27z"/><path fill="#2dca87" d="M304 494q7 2 13 6v2l2 1 6 7q2 5-1 9-4 6-9 8l-2-2h3v-5h3q3-5 1-12h-3l-2-1-1-3q0-3-4-5l-4-1z"/><path fill="#42cf92" d="m123 302 3 1-1 3v4l-1 3v5l-1 20-1 3 1 16-2 2q-4-5-3-12l1-4v-6l2-10v-4l1-12v-3z"/><path fill="#17d07c" d="m185 417 3 10v3l1 3 1 3-1 6-1-2-1-3-2-3-4-3 2-2v-3h-7v2c-5 6-5 6-9 6l7-9 2-2 2-2 2-2q2-2 5-2"/><path fill="#4fcc95" d="M180 359h1l3 35v2l1 14h-4l-3-8-1-2-2-8h2l1 3 2 1 1 4 1 2v2-2z"/><path fill="#73d5a9" d="m270 521-11 4c-5 0-5 0-9 2q-18 2-38 1h-22v-1h3c35-1 35-1 69-6z"/><path fill="#40d593" d="m127 488-2 1q-10 3-15 11l-2-1v-2l-3 2-9 1-1 2h-2l-1 3-5 1c7-11 22-15 34-19z"/><path fill="#44d193" d="m238 486 1 2-3 7h2l6 2 14 3h3l6 1v2l-36-3q0-6 4-10l2-2z"/><path fill="#13d480" d="M214 139h1q1 10-3 18l-1 4-1 3-4 12-3 6q0-6 2-13h2v-4l2-14v-5h2v-3h2z"/><path fill="#11db83" d="M204 123h3q-4 9-12 14l-7 8h-1l1-7h4v-5l1-3 1-5h7v2h2z"/><path fill="#1acd7c" d="M251 539h2l6 1h14q-5 3-10 2h-7v2h-8l-3 1-8 1-30 1h-16v-1l44-1v-2h11l3-1z"/><path fill="#0bd577" d="m244 353 2 2h3v5h2v8h-2v3l-1 3-4 2z"/><path fill="#4fd198" d="m166 434 3 4 2 2 1 5h3l1 2v3l1 2 2 5 1 4h2v3h3v2h3v7l-2 1-2-3-7-13-1-2-9-15-2-5z"/><path fill="#0ad779" d="M321 224h2v9l-1 8-2 1-1 3h-3l-2 7h-2l1-8h2c3-5 3-5 2-11q0-5 4-9"/><path fill="#14d17a" d="M242 480q9 0 17 3v2l6 1-1 3h-3v3h-5v-4l-5-1 1-4h-9v3h-4z"/><path fill="#08db7d" d="M132 148h-2l3 5-5 2-3 1-4 1-1 7-8 1 3-5 2-3c8-11 8-11 15-9"/><path fill="#4adc9b" d="m116 218 7 2v2l5 1v5h3l1-2 3 1v3l3 7-1 3-16-16-3-3z"/><path fill="#48d196" d="M274 136q5 1 7 7l2 3 2 2h-6v-6l-4-1v3c0 14 0 14-4 18l-1 1 2-21z"/><path fill="#0cd577" d="m220 383 2 1-2 5h-3l3 2-2 7h2v3q-5-1-7-6l-2 2h-3l-2 4-3-1h2v-2l4-6 2-1q5-3 9-8"/><path fill="#26d88c" d="M163 174v5l-1 2h-3v2h-5v7l-13 2q6-7 14-12h2v-2z"/><path fill="#23d283" d="M156 483v2l-18 4-18 2q4-4 7-3v-2q15-3 29-3"/><path fill="#59d49e" d="m185 165 3 1-2 7-4 11h2q10-2 19-2l-11 4q-6 0-13 3-1-5 1-10l3-8 1-4z"/><path fill="#05dc7c" d="m205 122-2 5-8-1-3 12h-2v-4h-2v-5l-2-1h2v-2h3v-2l5-2h9"/><path fill="#10d279" d="M86 506h1v6l1 3v3l2 1v-3h2v3l4-1-1 5 2 1 1 5-8-4v-2l-2-1q-3-1-4-6 0-6 2-10"/><path fill="#3bc68b" d="M309 306h3l-5 13-12 26v-9h2v-5h2v-2l1-2v-3l4-4 1-6h2v-5h2z"/><path fill="#0ad37b" d="M114 276q4 2 5 6 2 9-3 17l-2-3h-2l2-8h3v-5h-2l-1 3-3 1 1-5h2z"/><path fill="#28ca7e" d="m263 405-8 16q-1-5 1-10h2v-3l-6 1v2l-14 1q5-4 9-5l9-2z"/><path fill="#35ce8b" d="M238 413q-2 3-5 2h-3v10l1 9-5 1v5l-1 3v2l-2 1q0-10 3-20v-3l1-4 1-3 3-3z"/><path fill="#4acf95" d="M244 391h1q0 6-3 11l4-1v-2q7-3 14-3l-14 8-9 2q1-8 7-15"/><path fill="#33d696" d="M245 302h1v13l1-5 2 4v2l-1 2v2l-2 1-1 7-1 10-2-4v-11z"/><path fill="#58d39d" d="M174 308h1l4 32v3l1 14-2 1-1-14-1-2-1-6z"/><path fill="#60d4a2" d="m216 455-3 24-1 3-1 9h-1q-3-7-1-14v-3l1-2 2-1 1-7v-8z"/><path fill="#23d587" d="m148 351 5 9 2 3 1 3 2 3 3 9-3-1v-2l-3-1-1-6h-2v-2h-2l-1-5-1-3z"/><path fill="#4bd198" d="M123 358h2l1 6 3 1v4h2v4h2v2l3 1v2l3 6 3 8 2 1-2 2-13-22-1-2-6-12z"/><path fill="#3ed593" d="M268 246v6l-1 3-2 4-1 3h-4l-1 3-2 1-2 6-3-1 10-16z"/><path fill="#10d77a" d="M260 363h1l2 8-3 2-3-1-1 2v2l-1 3-3 3h-2l-1 7h-2v2h-2q3-12 12-22z"/><path fill="#12d882" d="M199 141v5l-1 3h-2l-1 8-4 1v2h-2l-1 4h-2q2-11 9-18z"/><path fill="#0ed97d" d="M217 123h2l-2 10h-8l-2 4h-2v3l-5 1 2-4h2l1-2 5-7h3v-2l4-1z"/><path fill="#46d195" d="M227 111q5 2 8 7l2 3 1 4-3 1v-5l-5-2v-3h-3v10h-2l-2 4z"/><path fill="#42c789" d="m194 361-1 2q-3 13 1 25v5l3 1-3 3h-2l-2-18v-3l-1-4 1-10z"/><path fill="#46d296" d="M215 343v2l3 1 1 3h2l-1 2-3-2-5-2-2-1-9-2-5 3-1-3q9-3 20-1"/><path fill="#29ce87" d="m315 185 8 10-2 7-2 4-3 5 2-18h-2z"/><path fill="#36d08e" d="M182 143h3l1 3-5 6-2 1-4 4h-2l-2 4h-2l-2 4h-2v2h-2v-4h2v-2l5-3 2-3h3v-2h2l1-5 5-1z"/><path fill="#1ed889" d="m313 213 2 1-7 19h-1l-1-9h-2l-4-1q2-3 5-4h2l2 3 2-7h2z"/><path fill="#4fcd92" d="m169 481 3 4 2 3v5h-2v-2l-1-2-2-1v-3l-8-1h-19v-1l11-2h16"/><path fill="#0ad67a" d="M316 193h2q1 11-2 21l-3-1-1-7 4-4-1 1h-2v-9l3 1z"/><path fill="#1dd07e" d="M202 469h2l1 10v5l4 1v4l-4 3v-3h-2z"/><path fill="#0bd47c" d="m251 128 4 1v2l7 1v7l-1 4-5-3 1-4h-2l-1-5-3-1z"/><path fill="#4cd195" d="m204 397 1 3h-2v2q0 3-4 5-3 2-4 5v17h-1c-3-13-3-13-2-19l5-6 3-3 4-2z"/><path fill="#5ad8a2" d="m158 350 2 6 3 1v6h2v2h2l2 6 1 4 1 3-2 3-1-3-10-23z"/><path fill="#49cc97" d="m179 164-4 11-2 3-1 2h-1v-5h2v-4l-4 1-1 2-4-1 7-6c5-3 5-3 8-3"/><path fill="#3ece8e" d="M220 423h1q2 16-5 31v-21l3-1z"/><path fill="#3ed192" d="m281 215 4 1-6 9-2 3-2 3-2 2-3 3 1-9 3-1 1-2h2l1-6h3z"/><path fill="#53d39e" d="M294 181h2l-4 21-1 4-5 8v-6h2v-4l1-3 1-4 3-9v-4z"/><path fill="#4bd499" d="m156 169 4 1-14 10-3 2-6 4-1-3h3l1-3 2-2v-1l7-1v-3h4v-2h3z"/><path fill="#8fd7b9" d="M235 295q3 17 0 35h-1l-1-32-5 2-4-1 4-2 2-1z"/><path fill="#0ed37d" d="M147 267h3l4 5 2 3 2 6h-5l-1-3-2-4-3-1z"/><path fill="#35d18c" d="M322 507q4 2 4 6-1 7-7 12l-4 2-2-2h3v-5h3q3-6 3-13"/><path fill="#50cd9c" d="m214 481 2 3h2l1-3 3 1-8 14-3-1z"/><path fill="#05d675" d="M181 379v7l-1 3v5h-2l-1-5h-2v-8z"/><path fill="#10d17d" d="m170 381 3 1 2 7h2l1 5h2l-1-6h2l1 6 1 3v8l-2-1-1-8-3-1v-3h-3z"/><path fill="#30d28a" d="M121 269h2l1 2q2 7 6 13 5 5 3 12l-5-9-5-10z"/><path fill="#36d690" d="m89 284 3 1q3 6 2 12h3l1 10-7-12-1-2-2-7z"/><path fill="#16d47a" d="m284 515 1 2h-4v2h-3l-1 5-5-1v2h-2v-2l-3-1c13-9 13-9 17-7"/><path fill="#2ccf8a" d="m240 128 7 9 3 5 2 5-1 2h-4l-2-11h-2v-5l-3-1z"/><path fill="#56d39d" d="m299 187 2 4-1 2v4q-1 13-10 21l-2-1 2-2c6-7 7-19 9-28"/><path fill="#54d79d" d="M218 111q-1 5-5 7l-2 2-1 1-2-4-2 1h-7l6-2 3-2 3-1 3-1z"/><path fill="#5ccda0" d="m185 417 3 10v3l1 3 1 3-1 6-4-12-1-3-1-5-2 1h-5l3-3 1-2z"/><path fill="#32cf87" d="m215 360 7 4q-1 5-6 9l-2 3-2 2q-1-5 1-10l5 1z"/><path fill="#58d39f" d="M118 292v11l-1 2-4 22h-1q0-8 2-17v-7z"/><path fill="#1fd07e" d="m323 260-3 2q-5 3-8 8l4 1-14 2 6-5 1-2c9-8 9-8 14-6"/><path fill="#39d292" d="m106 252 5 7v2l1 2 1 3 2 6 1 4 1 2-2 2v-4h-2q-3-4-3-10l-3-5-1-5v-4"/><path fill="#38d390" d="m125 204-3 9-6-1v6l-4-3v-3l3-3 2-1 4-1v-2z"/><path fill="#47c691" d="M256 542h14v1l-33 3q2-2 6-2h13z"/><path fill="#38d28c" d="M267 503h9q6 0 8 2 3 4 2 9l-2-1 1-3-12-4-3-1-3-1z"/><path fill="#4ed695" d="m227 372 1 2-2 5-2 2-4 3-4 4-2 2-1 2-3-1 2-2z"/><path fill="#5ecb9e" d="M242 338h1l1 42h3l-3 5h-2z"/><path fill="#5fd49f" d="m270 521-11 4c-5 0-5 0-9 2l-13-1v-1h3l25-5z"/><path fill="#22d385" d="m141 389 5 1 1 6h2l2 8q-5-1-7-5l-2-7z"/><path fill="#48d697" d="m111 165 1 4-2 4-4 6v2l-5 2-3-1 2-2z"/><path fill="#28d388" d="m147 403 4 1v3h2v3l6 2v7l-4-1-3-5-2-2z"/><path fill="#34d78f" d="m161 378 6 10 1 2-1 2-5-1v3h-3l-1-4 3-2v-10"/><path fill="#46c690" d="M288 352h3l-6 15-1 2q-2 6-6 10l2-10h2l1-6h2v-2q0-3 2-5z"/><path fill="#4ecd96" d="M121 538h8l6 2 15 2c-7 4-18 0-26-2z"/><path fill="#2bd489" d="M151 332h3l1 7h2v11q-6-8-6-18"/><path fill="#40d097" d="M302 172q4 0 6 4l3 3 2 3 2 2-4 1-1-2-6-7-3 11h-1q0-8 2-15"/><path fill="#0bd77b" d="M123 239q5 2 7 6l1 10-2-1 1-4-7-1v-3h3l-1-1q-2-1-2-6"/><path fill="#0ad87b" d="M133 288q4 3 5 8v12q-6-9-6-19z"/><path fill="#24cd86" d="M104 219q6 3 11 9l1 2 4 4q-5 0-8-3v-3h-5l1-4-4-1z"/><path fill="#4cd39b" d="m119 198-9 7-5-1-5-6 6 2 1 3h2v-2h4l-1-3z"/><path fill="#55d8a3" d="M217 184h6l4 1 6 2v2h2v2l5 1 1 4-3-2q-10-6-21-9z"/><path fill="#5acf9a" d="m298 536-11 3-3 1-14 2 3-1 1-3h3l10-2z"/><path fill="#3ace8d" d="m209 374 2 4-2 4-2 1-1 2h-2l-2 4h-2l-1 3-1-2 1-3-2-1h6l-1-5h4l1-4 2 1z"/><path fill="#56d49e" d="M186 333h2v16h4v-2l4 1c-6 4-6 4-9 4q-2-5-1-11v-8"/><path fill="#3ed493" d="M269 320h2q-2 11-8 20l1-12h2l1-5h2z"/><path fill="#42d596" d="m123 149 1 4-3 1v2l-1 8-8 1 3-5 2-3z"/><path fill="#49cf96" d="m98 529 11 2v2l12 3v2q-13-1-23-9"/><path fill="#49d493" d="M275 379h3c-3 10-3 10-7 13l-5 1 2-1 1-4-1-2 2-2h4z"/><path fill="#86deb7" d="m185 298 5 1-4 1v32h-1l-1-33z"/><path fill="#42d195" d="M169 180h2l-7 16-3-1v-3l-3-1 2-1 3 1v-2h2v-4h2z"/><path fill="#0ed77f" d="m131 226 4 1v3l3 7-1 3-3-3-2-2q-3-2-3-6z"/><path fill="#3bc888" d="M252 364v6l-2 3-2 3-1 3h-2l-1 2-1-4v-12h1v11q5-2 5-8h2z"/><path fill="#4ace98" d="M261 340h2l-3 10-1 2-1 3-1 2-3 7h-1v-6h2v-6h2v-4h2v-4h2z"/><path fill="#5dd6a4" d="m138 330 7 12 1 2 2 7-4-1-2-8-2-1z"/><path fill="#51d59a" d="M233 332h1l-1 24-2 1-5-4 5-1v-9l1-2v-5z"/><path fill="#10d480" d="M173 308h1l1 21q-5-5-4-13c0-6 0-6 2-8"/><path fill="#42d795" d="M163 174v5l-1 2h-3v2h-5v2h-5q3-4 8-5v-2z"/><path fill="#65d8ab" d="m223 112 2 1-4 14-1-8-3 1 1-5z"/><path fill="#4fd198" d="m204 353 9 5-4 1-3-2v-2l-3 1-1 3-8 1c5-7 5-7 10-7"/><path fill="#56d39b" d="m241 196 8 2v5h3v-3h2l-1 7-4-1-3-5-3-2v-2z"/><path fill="#16d27b" d="M249 411v1h-6l1 3h-2v-2l-4 3h-3l-1 4-4 1v-6l3-1 7-2z"/><path fill="#26cf7f" d="M158 494h3l-1 4 11 1v1h-22q4-4 9-3z"/><path fill="#55d19c" d="m190 442 4 13 1 2 1 10h-2q-4-12-4-25"/><path fill="#0cd67e" d="M93 293h2v2l5 1v13h-2l-1-12h-3z"/><path fill="#5fc799" d="M196 489h2l1 5h2v2h3l1 4h4l-1 4q-3 0-5-4l-3-1-2-3-1-2z"/><path fill="#44ca95" d="m196 468 4 13 1 2 1 9h-3l-1-6-1-4v-9h-2z"/><path fill="#0ad57d" d="M114 276q4 2 5 6l1 9-1-4h-2v-4h-2l-1 3-3 1 1-5h2z"/><path fill="#62d4a0" d="m238 486 1 2-2 4-2 6 8 1v1h-12q1-8 7-14"/><path fill="#58cb9a" d="m259 404 4 1-8 16q-1-5 1-10l2-1 1-3-3-1z"/><path fill="#4cd197" d="m301 274-1 5q-3 4-3 8h-2v2l-3 5v-6l2-4 1-2q2-5 6-8"/><path fill="#4ad39a" d="m278 232 2 1v2l-3 2-2 7h-2v2l-4-1 4-6 1-2z"/><path fill="#4cd193" d="M222 446h1c1 13 1 13-1 16l-4 3 1-6v-4z"/><path fill="#10d481" d="M203 179v3l-21 2 1-4 1 2q5 1 9-2z"/><path fill="#44d493" d="M130 314q4 3 6 9l1 3 1 4h-3v-3l-3-1v-3z"/><path fill="#57d09a" d="M251 271v15l-1 5h-2v6h-1q0-13 4-26"/><path fill="#14c57c" d="m87 205 4 2h2v2l-4 1 2 3 2 3-1 3h-2v-4h-3z"/><path fill="#4cd299" d="M208 161h2l-6 21h-1q0-6 2-13h2v-3z"/><path fill="#51cd93" d="m313 527 2 1-6 3-3 2-8 2v-2l-2-1 9-2q4-2 8-3"/><path fill="#3ed390" d="M231 458h3q-1 7-6 13h-1l-1-9 3 1z"/><path fill="#52d2a0" d="M225 407v11l-1 3-1 3-1 7h-1q-1-13 4-24"/><path fill="#14d37c" d="m310 272-3 4h-4l-1 4h-2l-1 3-2-1c7-12 7-12 13-10"/><path fill="#5bbf98" d="m321 218 3 1 1 13q-2-3-2-8-3 2-4 5v-7l1-2z"/><path fill="#55d59d" d="m141 192-2 5-7 3-3 4-4-1 5-4 3-2 4-2v-2z"/><path fill="#68d8a7" d="M215 164h1v20l-4-1q1-9 3-19"/><path fill="#4cd093" d="m300 327 2 1-7 17v-9h2v-5h2z"/><path fill="#5ed29f" d="M142 317h2l3 9h2l3 10-2 1-4-9-1-2-1-3-1-2z"/><path fill="#4ad797" d="m317 229 2 6q0 5-4 9l-3 1 1-5 1-3z"/><path fill="#59d49c" d="M86 506h1v6l1 3 2 7h-3q-4-5-3-12z"/><path fill="#41d392" d="m282 283 3 1-5 15h-1v-7h3z"/><path fill="#48cd92" d="M241 442h2l-5 11-2 3-1 2-2-1v-2h2v-5l3-2 2-5z"/><path fill="#27d484" d="M266 393q-4 4-9 4l-10 2 4-5 2 1z"/><path fill="#2ad086" d="m213 392-2 5h-3l-2 4-3-1h2v-2q2-7 8-6"/><path fill="#54d69e" d="M290 293q2 5-1 10l-1 3q-1 3-5 4l5-11 1-4z"/><path fill="#53d39c" d="m161 195 2 1-8 16-1-4h2v-3l3-7h2z"/><path fill="#16d984" d="m157 163 6 2-1 4h-6v2h-7l8-5v2h3z"/><path fill="#47d59a" d="M217 130h3l-3 10v3l-1 2h-1l-2-10h3z"/><path fill="#61d09e" d="m130 517 2 1 18 4v1q-11 2-20-4z"/><path fill="#40d292" d="M281 313q2 6 0 11l-1 2h-4l1-4 1-3z"/><path fill="#40d492" d="M98 309h3l1 3 3 6 1 7q-4-4-6-10l-1-4z"/><path fill="#67dea6" d="M224 300v3h-24v-1h9l2-1h5z"/><path fill="#4cc393" d="M262 132h1v15l-4-1-3-6 4 2q2-2 2-6v-4"/><path fill="#64d6a4" d="M103 495v2l-3 1-2 2h-2l-1 2h-2l-1 3-5 1q6-9 16-11"/><path fill="#4ecf97" d="m249 426 2 1-5 10-1 3-1 2h-1v-7l4-2v-4h2z"/><path fill="#55cf98" d="M253 373v5l-1 2-3 9h-2v2h-2q3-10 8-18"/><path fill="#4fd8af" d="m88 205 7 1v9l-6-3v-2l4-1v-2l-3 1-2-1z"/><path fill="#53d3a1" d="M132 187h2l-13 10v-3l3-1v-2h3v-2q2-2 5-2"/><path fill="#11d480" d="M169 171h4v4h-2v5h-2l-1-4h-4v-2h4z"/><path fill="#59d59d" d="M165 132v2q-8 4-17 4l12-5z"/><path fill="#4ed39b" d="M210 128q0 5-3 9h-2v3l-5 1 2-4h2l1-2z"/><path fill="#54d39a" d="M275 326v9l-1 3-3 3h-2z"/><path fill="#50d29c" d="m106 325 7 3-2 6q-5-4-5-9"/><path fill="#3cd497" d="m139 256 10 11h-4v-2l-5-1z"/><path fill="#66d6a8" d="M193 409q3 6 2 14v6h-1l-2-19z"/><path fill="#50ce9a" d="M175 392h2l1 3 2 1 1 4 1 3v2l-2 2-2-6-2-4z"/><path fill="#66d8a3" d="m194 361-1 2-2 11v7h-1l-1-13v-2q0-5 5-5"/><path fill="#53d6a2" d="m222 132 2 1-1 11h-2l-1 5v-11l1-3z"/><path fill="#55d7a1" d="m199 120-3 1v2q-5 3-12 2 6-6 15-5"/><path fill="#37d28b" d="M210 472h1v19h-1q-3-7-1-14l1-3z"/><path fill="#63d29c" d="M238 413q-2 3-5 2h-3v3q0 4-3 7l2-11q4-3 9-1"/><path fill="#2acc84" d="M293 340h2l-1 4v3l-3 5h-2l-1-5 5-2z"/><path fill="#36d38c" d="m152 138-3 3h-3v2h-5v-3q6-2 11-2"/><path fill="#4ccf96" d="m304 494 11 5-2 2c-7-2-7-2-8-5z"/><path fill="#49cd96" d="m168 392 7 13 1 3h-2l-2-5h-2v-4h-2z"/><path fill="#12cf7b" d="m281 367 1 2h-2v2l-2 8h-3v5h-1l1-9h2v-2h2v-5z"/><path fill="#44d293" d="M165 365h2l2 6 1 4 1 3-2 3z"/><path fill="#5ad5a1" d="M121 269h2l2 5 1 3c2 5 2 5 1 8l-3-6-2-3z"/><path fill="#50d59d" d="M199 141v5l-3 4-2 1-1 2-3-1z"/><path fill="#50d098" d="M240 128q6 5 8 11l-1 2-2-1v-2h-2v-5l-3-1z"/><path fill="#4ecf93" d="m242 480 10 1v1l-9 1v3h-4z"/><path fill="#16cd7c" d="M202 355h4v2l2 1h2l3 1q3 1 4 5l-4-1-2-2-4-2-2 1-1-3z"/><path fill="#77deae" d="M119 340h1v6l1 4q0 4 2 7l-2 2q-4-5-3-12l1-4z"/><path fill="#12d47c" d="M269 312h4v3h-2v5h-2v3l-2-1z"/><path fill="#61c99b" d="M325 255v9l-2-5-6 2v-2c4-4 4-4 8-4"/><path fill="#77d2af" d="m243 121 12 5v1l-7-1-1-2-1 3z"/><path fill="#59d69e" d="m282 514 3 3h-4v2l-10 1 7-4 2-1z"/><path fill="#39cc89" d="M127 486h7v2l-5 2h-9l7-2z"/><path fill="#12d47d" d="M247 389q1 5-1 10v2l-4 1 3-11h2z"/><path fill="#58d49c" d="m217 383 3 1-7 8-3-1z"/><path fill="#4fd395" d="M106 252q4 4 5 9v3l1 2h-2q-4-6-4-14"/><path fill="#6dcaa6" d="M310 248h1l-1 7 4-1-3 5h-4z"/><path fill="#33d491" d="M255 186h1l-1 14-1-4-3 1v-2h2v-3z"/><path fill="#58d5a0" d="M214 145q1 5-1 10l-1 3-1 3-2-6h2v-3q0-4 2-6z"/><path fill="#61cf9a" d="m322 507 3 3q1 5-2 10l-2 2v-2l1-3v-10"/><path fill="#34c588" d="m205 493 4 2v5h-4l-1-6z"/><path fill="#2acd82" d="m251 420 3 1q-1 5-5 8h-2v-5l3-1z"/><path fill="#47ba8a" d="M183 400q3 4 2 10h-4v-5h2z"/><path fill="#5dc898" d="M231 367h3l-1 9-1-3-4-1z"/><path fill="#61d1a2" d="M261 356q2 6-1 11l-3 3h-2z"/><path fill="#3ccd91" d="m313 213 2 1-1 4-1 3-3 4 1-10h2z"/><path fill="#6ed5aa" d="M97 184v5l-1 3 2 2 2 4h-2v-2l-2-1-3-3q1-4 4-8"/><path fill="#63d0a0" d="M256 542h14v1l-5 1-2 1h-7z"/><path fill="#6ecdaa" d="M240 398h1v5l4 1q-3 3-8 2z"/><path fill="#51d098" d="m215 360 7 4-1 4-3 2v-2q0-4-3-6z"/><path fill="#2fd68e" d="M147 267h3l3 5-3 2-3-1z"/><path fill="#64daa6" d="M313 263q0 5-3 8l-6 3-2-1z"/><path fill="#0bd87e" d="m185 173 3 3v4h-5z"/><path fill="#13d47b" d="m127 519 12 3-2 2-7-2v-2z"/><path fill="#43d190" d="M137 501h7l-2 1v2l-9 2-1-2 5-2z"/><path fill="#45cb8e" d="M217 468h1v8l-2 6q-2-7 1-14"/><path fill="#68d3a2" d="m175 424 1 4q-4 5-9 6l7-9z"/><path fill="#4bd095" d="m170 416 4 1-3 3h-2l-1 3-3 1v-4l3-1z"/><path fill="#4fd09c" d="M269 320h2l-4 13-2-4h2v-6h2z"/><path fill="#3fd392" d="M133 296h4l1 12c-5-7-5-7-5-12"/><path fill="#50d397" d="m125 204-2 5h-4v2l-4-1 6-3v-2z"/><path fill="#52ce96" d="m319 190 4 4-3 10h-1z"/><path fill="#32d590" d="M172 130h4l-4 4-7-1v-2z"/><path fill="#6fd9a7" d="m257 482 15 2v1h-13v-2z"/><path fill="#18d682" d="m253 270 3 4-4 6h-1v-4l1-3z"/><path fill="#27d589" d="M163 189h2l-1 7-3-1v-3l-3-1 2-1 3 1z"/><path fill="#16d281" d="M216 182h7l5 1v2l-12-1z"/><path fill="#50d497" d="m278 140 7 9-6-1z"/><path fill="#77d6ac" d="m218 111-1 4-3 2v-2h-5q4-3 9-4"/><path fill="#47cf94" d="m123 511 2 2 5 3v3h-4l-3-4z"/><path fill="#37d28b" d="m184 464 1 2h3v7l-2 1q-2-5-2-10"/><path fill="#3ece8f" d="M216 455v8l-3 1v-8z"/><path fill="#3ed496" d="M151 357q5 4 5 10h-3v-2h-2z"/><path fill="#62d0a5" d="M232 347h1v9l-2 1-5-4 5-1z"/><path fill="#44cd91" d="M293 261h2l-4 13h-1l1-9h2z"/><path fill="#56dca3" d="M134 231v4h3l1 5-5-4-3-4z"/><path fill="#46d699" d="M92 218h2l3 11c-5-4-5-4-5-8z"/><path fill="#2ece88" d="M153 211v6l-2 3h-2v-6z"/><path fill="#51d49b" d="M171 161h-2l-2 4h-2v2h-2v-4h2v-2z"/><path fill="#58d39c" d="M189 153q3 2 2 5v2h-2l-1 4h-2z"/><path fill="#6ad29f" d="m223 112 2 1-2 9h-1v-6h-2l1-3z"/><path fill="#5fd19d" d="M109 534h5l3 1 4 1v2l-12-3z"/><path fill="#18d27d" d="M286 510h3l-1 7-2 1v-2l-3-1 3-1z"/><path fill="#57c196" d="m175 492 4 4v3h-8l4-1z"/><path fill="#64cfa0" d="M250 408v2c-8 2-8 2-12 1l4-1 2-1z"/><path fill="#1cca7e" d="m228 372 4 1-1 9h-1v-6l-4 1z"/><path fill="#4bd096" d="M309 306h3l-2 7-3 1v-5h2z"/><path fill="#31cc87" d="M248 291h1q1 9-2 16h-1v-10h2z"/><path fill="#5fdaa8" d="m258 261 1 2-2 5-1 2-1 2-3-1z"/><path fill="#58d3a0" d="m278 506 8 1v7l-2-1 1-3-2-1z"/><path fill="#39d291" d="M264 350h1v5l-1 1v6l-4 1 1-5 1-3z"/><path fill="#45d394" d="M143 342h2l3 9-4-1q-2-4-1-8"/><path fill="#50d399" d="m277 221 2 1q-1 5-5 9l1-7h2z"/><path fill="#0fd77e" d="m122 212 2 1-1 5h-7l1-3 5 2z"/><path fill="#11d680" d="m124 149 2 1 1 5-6 2v-3l2-1z"/><path fill="#3fd194" d="M204 123h3q-2 6-7 8l-1-4h4z"/><path fill="#3cce92" d="m91 523 6 1 1 5-8-5z"/><path fill="#52d59f" d="m147 403 4 1v3h2v5q-4-4-6-9"/><path fill="#5bd39e" d="m170 381 4 3 1 8q-4-5-5-11"/><path fill="#51d29b" d="M123 358h2v3l1 3 2 1-1 4-5-10z"/><path fill="#31d48a" d="m213 344 5 1 1 4h2l-1 2-5-2z"/><path fill="#13d07e" d="m313 297 2 1-1 2h-2v6l-3-1 1-6z"/><path fill="#4bcf97" d="m112 226 8 9-8-4z"/><path fill="#14ce7b" d="M321 224h2l-1 7-4 1z"/><path fill="#1dd786" d="M313 205h2l1 9-3-1-1-7z"/><path fill="#34d68f" d="m185 165 3 1q0 5-4 8z"/><path fill="#5bd99f" d="M218 151h1v11h-3z"/><path fill="#14cf79" d="m97 524 4 1 1 4-5-1z"/><path fill="#05d975" d="m245 365 3 3-1 5-2 1z"/><path fill="#42cd94" d="M288 352h3l-2 6-3 1-1 2z"/><path fill="#73d9ae" d="M235 296q-4 4-11 4 4-6 11-4"/><path fill="#44d694" d="m292 158 5 5v2l-6-3z"/><path fill="#57cf9e" d="m252 147 7 10-4-1-2-5v-2z"/><path fill="#4bd399" d="M188 138h4v3l-5 4z"/><path fill="#47d89c" d="m195 130 5 1v2l-5 4z"/><path fill="#1dd381" d="m240 126-1 3h-5v-3z"/><path fill="#3bd18a" d="m300 530 2 1 1 3-5 1v-2l-2-1z"/><path fill="#16ce79" d="M239 486h3v5h-5z"/><path fill="#12ce7c" d="M195 473h2l1 11-4-10z"/><path fill="#1fd080" d="M255 370q1 6-1 11h-3z"/><path fill="#10d27b" d="M262 332h1v8h-2l-1 4-1-6 2-1z"/><path fill="#2bd587" d="M282 310h3l1 8q-3-1-4-5z"/><path fill="#14d67e" d="m291 293 2 3-2 7h-2z"/><path fill="#14d07b" d="m233 298-1 4-8-1z"/><path fill="#63d7a4" d="m89 284 1 2 2 3v6q-3-4-4-9z"/><path fill="#15d67f" d="M269 246h2v8l-2 1v-2h-2z"/><path fill="#3bce91" d="M123 239q5 1 7 7l-7-3z"/><path fill="#38cf8d" d="m144 239 1 4-4 1-3-4h2z"/><path fill="#15cf7e" d="m97 216 6 2-1 3h-4z"/><path fill="#29ca84" d="m95 208 3 2v5l-3-1-1-4z"/><path fill="#25d087" d="m207 116 3 2-1 5-2 1z"/><path fill="#64d0a2" d="m166 434 4 7-2 2q-4-4-3-7z"/><path fill="#12d17a" d="m170 379 6 1 1 3-4 2-1-3-2-1z"/><path fill="#59d298" d="M156 367c5 8 5 8 5 11l-3-1q-2-5-2-10"/><path fill="#5ed3a1" d="M280 369h3q-1 6-5 10z"/><path fill="#60d39b" d="M268 341h1l-1 8-2 1-1-2z"/><path fill="#49d49c" d="m148 326 4 10-2 1q-2-5-2-11"/><path fill="#4bd294" d="m138 308 3 1 2 6-2 2z"/><path fill="#42d29b" d="M117 279q3 5 3 12l-1-4h-2z"/><path fill="#4fce98" d="M319 282h3l-3 9q-2-4 0-9"/><path fill="#46d093" d="M153 272q4 3 5 7l-5-1z"/><path fill="#49cc95" d="M320 221h3v3l-2 1-2 4q-2-5 1-8"/><path fill="#0ed07a" d="m250 194 4 2v4l-3 1z"/><path fill="#56da9b" d="m156 169 4 1-7 4v-3h3z"/><path fill="#61d7ab" d="m111 165 1 4-4 4q-1-5 3-8"/><path fill="#94dabf" d="M203 498h2v2h4l-1 4-3-1z"/><path fill="#1ccf7e" d="M103 495h4v2l-8 3 1-3h3z"/><path fill="#16cf7d" d="m297 493 7 1v2l-5 1-3-3z"/><path fill="#5fd49b" d="m278 299 2 1-3 8h-1c0-6 0-6 2-9"/><path fill="#43d596" d="M132 187h2l-5 5h-2q0-5 5-5"/></svg>